<svg xmlns="http://www.w3.org/2000/svg" width="40" height="40" viewBox="0 0 40 40"><g transform="translate(-473 -69)"><g transform="translate(697 -92.355)"><g transform="translate(-213 169.355)"><g transform="translate(0)"><path d="M84.519,0a8.521,8.521,0,0,0-7.247,13l6.763,10.9a.71.71,0,0,0,.6.336h.006a.71.71,0,0,0,.6-.345l6.59-11A8.521,8.521,0,0,0,84.519,0Zm6.1,12.155-5.991,10-6.148-9.908a7.1,7.1,0,1,1,12.14-.1Z" transform="translate(-76)" fill="#fff"/></g><g transform="translate(4.26 4.26)"><path d="M170.26,90a4.26,4.26,0,1,0,4.26,4.26A4.264,4.264,0,0,0,170.26,90Zm0,7.109A2.849,2.849,0,1,1,173.1,94.26,2.851,2.851,0,0,1,170.26,97.109Z" transform="translate(-166 -90)" fill="#fff"/></g></g></g><g transform="translate(473 69)" fill="none" stroke="#fff" stroke-width="1"><circle cx="20" cy="20" r="20" stroke="none"/><circle cx="20" cy="20" r="19.5" fill="none"/></g></g></svg>