<svg xmlns="http://www.w3.org/2000/svg" width="142.186" height="35.192" viewBox="0 0 142.186 35.192"><g transform="translate(-763.302 -221.8)"><path d="M904.345,233.654h5.149V252.1h-5.149Zm0-6.3h5.149v4.461h-5.149ZM893.257,252.1V233.654h4.765v2.585a6.965,6.965,0,0,1,1.867-2.106,4.779,4.779,0,0,1,2.3-.845v5.849c-.29-.065-.564-.109-.827-.141a5.815,5.815,0,0,0-.712-.048,1.834,1.834,0,0,0-1.743.874,8.059,8.059,0,0,0-.487,3.428V252.1Zm-3.085-18.441V252.1h-4.859v-2.186a5.861,5.861,0,0,1-1.944,1.938,5.039,5.039,0,0,1-2.534.614,3.6,3.6,0,0,1-3.161-1.435,7.95,7.95,0,0,1-1.014-4.511v-12.86h5.2v11.4a7.586,7.586,0,0,0,.293,2.748,1.071,1.071,0,0,0,1.028.532,1.52,1.52,0,0,0,1.359-.827,4.62,4.62,0,0,0,.488-2.328V233.654Zm-15.507,18.382c-.63.115-1.185.2-1.655.26a9.343,9.343,0,0,1-1.2.089,6.211,6.211,0,0,1-2.624-.5,3.319,3.319,0,0,1-1.6-1.418,4.771,4.771,0,0,1-.47-1.6,22.24,22.24,0,0,1-.139-2.942v-8.465h-2v-3.808h2v-5.1H872.2v5.1h2.47v3.808H872.2v7.525a7.253,7.253,0,0,0,.349,2.963,1.489,1.489,0,0,0,1.365.561,5.584,5.584,0,0,0,.582-.051,1.658,1.658,0,0,1,.175-.014Zm-24.908.059V233.654h4.86v2.186a5.76,5.76,0,0,1,1.944-1.932,5.072,5.072,0,0,1,2.552-.62,3.558,3.558,0,0,1,3.143,1.427,8.022,8.022,0,0,1,1,4.52V252.1h-5.15V240.7a7.616,7.616,0,0,0-.293-2.754,1.052,1.052,0,0,0-1.028-.544,1.513,1.513,0,0,0-1.359.836,4.674,4.674,0,0,0-.488,2.334V252.1Zm-11.076-11.711h3.484v-.1c.044-.464.065-.795.065-.987a3.583,3.583,0,0,0-.443-2,1.551,1.551,0,0,0-1.371-.647,1.5,1.5,0,0,0-1.356.632,3.944,3.944,0,0,0-.408,2.077c0,.263,0,.47.006.62S838.67,240.269,838.681,240.385Zm3.356,5.243h4.86v.461a6.444,6.444,0,0,1-1.7,4.868,7.063,7.063,0,0,1-5.073,1.634,9.272,9.272,0,0,1-3.079-.479,5.127,5.127,0,0,1-2.153-1.324,5.777,5.777,0,0,1-1.238-2.582,25.578,25.578,0,0,1-.367-5.146,26.532,26.532,0,0,1,.378-5.451,5.676,5.676,0,0,1,1.294-2.547,5.419,5.419,0,0,1,2.234-1.42,9.387,9.387,0,0,1,3.155-.479,8.752,8.752,0,0,1,3.161.517,5.034,5.034,0,0,1,3.179,3.6,18.83,18.83,0,0,1,.3,4.08v2.215h-8.441a1,1,0,0,0-.017.207c-.042.777-.065,1.314-.065,1.625a6.174,6.174,0,0,0,.417,2.7,1.5,1.5,0,0,0,1.429.756,1.581,1.581,0,0,0,1.333-.582,2.841,2.841,0,0,0,.449-1.758c0-.16-.018-.4-.045-.736A.851.851,0,0,1,842.038,245.628ZM820.956,252.1l-5.525-24.544h6.115l2.136,12.893c.091.576.2,1.332.328,2.275s.242,1.958.363,3.052l.048-.3c.287-2.564.487-4.222.609-4.989l2.18-12.925h6.1L827.692,252.1Z" transform="translate(-12.703 -1.355)" fill="#00406a" fill-rule="evenodd"/><path d="M767.419,235.556h10.429v-6.83h8.721v6.65c5.513-.029,7.492,3.8,7.551,7.194v7.551h-7.1v3.5h-9.708Z" transform="translate(-1.003 -1.688)" fill="#fff" fill-rule="evenodd"/><path d="M767.419,235.556h10.429v-6.83h8.721v6.65c5.513-.029,7.492,3.8,7.551,7.194v7.551h-7.1v3.5h-9.708Z" transform="translate(-1.003 -1.688)" fill="none" stroke="#fff" stroke-width="0.216"/><path d="M780.9,221.8a17.6,17.6,0,1,1-17.6,17.6A17.631,17.631,0,0,1,780.9,221.8Zm-14.482,12.068h10.429v-6.83h8.721v6.65c5.513-.03,7.492,3.8,7.551,7.194v7.551h-7.1v3.5h-9.708Z" transform="translate(0 0)" fill="#e30016" fill-rule="evenodd"/><path d="M785.864,231.484v6.957l.233-.079.355-.1.358-.071.354-.045.354-.02.352.006.349.023.343.048.337.068.331.088.322.106.316.124.307.139.3.154.287.172.275.183.262.2.249.209.236.222.225.231.206.242.189.251.175.26.153.268.136.278.115.284.094.29.068.3.047.3.018.3v6.517h-4.7v-4.939l-.009-.145-.02-.118-.029-.1-.042-.095-.05-.088-.062-.079-.071-.074-.082-.071-.094-.062-.1-.056-.113-.05-.118-.042-.124-.033-.13-.023-.133-.015-.132-.006-.136.006-.13.015-.127.023-.124.033-.115.042-.107.047-.1.056-.086.062-.077.065-.067.074-.057.077-.044.085-.039.091-.026.1-.015.115,0,.157v8.13h-6.494l-7.687-14.225h5.554l3.707,6.553V231.484Z" transform="translate(-2.061 -2.36)" fill="#00406a" fill-rule="evenodd"/><path d="M947.557,232.817a1.931,1.931,0,1,1-1.932,1.929A1.934,1.934,0,0,1,947.557,232.817Zm0-.349a2.278,2.278,0,1,1-2.278,2.278A2.283,2.283,0,0,1,947.557,232.468Z" transform="translate(-44.347 -2.6)" fill="#00406a" fill-rule="evenodd"/><path d="M947.527,235h.328a1.517,1.517,0,0,0,.4-.029.231.231,0,0,0,.121-.1.318.318,0,0,0,.047-.174.3.3,0,0,0-.059-.189.287.287,0,0,0-.169-.092c-.035,0-.141-.005-.318-.005h-.346Zm-.44,1.339v-2.32h.928a1.5,1.5,0,0,1,.508.062.51.51,0,0,1,.254.222.729.729,0,0,1,.095.366.637.637,0,0,1-.145.432.676.676,0,0,1-.431.213,1.044,1.044,0,0,1,.237.2,2.781,2.781,0,0,1,.251.375l.265.455h-.526l-.319-.505a2.435,2.435,0,0,0-.234-.34.356.356,0,0,0-.129-.1.7.7,0,0,0-.225-.026h-.089v.97Z" transform="translate(-44.787 -2.978)" fill="#00406a" fill-rule="evenodd"/></g></svg>