<svg xmlns="http://www.w3.org/2000/svg" width="188" height="46.532" viewBox="0 0 188 46.532"><g transform="translate(-763.302 -221.8)"><path d="M932.994,235.683H939.8v24.383h-6.808Zm0-8.324H939.8v5.9h-6.808Zm-14.66,32.707V235.683h6.3V239.1a9.21,9.21,0,0,1,2.469-2.785,6.319,6.319,0,0,1,3.043-1.117v7.734c-.383-.086-.746-.144-1.094-.187a7.686,7.686,0,0,0-.941-.063,2.425,2.425,0,0,0-2.3,1.156,10.655,10.655,0,0,0-.644,4.532v11.7Zm-4.079-24.383v24.383H907.83v-2.891a7.749,7.749,0,0,1-2.571,2.563,6.663,6.663,0,0,1-3.351.812,4.754,4.754,0,0,1-4.18-1.9c-.891-1.27-1.34-3.254-1.34-5.965v-17h6.871v15.07a10.029,10.029,0,0,0,.387,3.633,1.416,1.416,0,0,0,1.359.7A2.01,2.01,0,0,0,906.8,254a6.108,6.108,0,0,0,.645-3.078V235.683Zm-20.5,24.305c-.833.152-1.567.265-2.188.344a12.354,12.354,0,0,1-1.586.117,8.213,8.213,0,0,1-3.469-.656,4.389,4.389,0,0,1-2.117-1.875,6.307,6.307,0,0,1-.621-2.118,29.392,29.392,0,0,1-.184-3.89V240.718h-2.648v-5.035h2.648v-6.742h6.9v6.742h3.266v5.035h-3.266v9.95q0,3.182.461,3.918a1.968,1.968,0,0,0,1.8.742,7.387,7.387,0,0,0,.769-.067,2.184,2.184,0,0,1,.231-.019Zm-32.934.078V235.683h6.426v2.891a7.615,7.615,0,0,1,2.57-2.555,6.706,6.706,0,0,1,3.375-.82,4.7,4.7,0,0,1,4.156,1.887q1.319,1.886,1.321,5.976v17h-6.809V245a10.071,10.071,0,0,0-.387-3.641,1.391,1.391,0,0,0-1.359-.719,2,2,0,0,0-1.8,1.106,6.179,6.179,0,0,0-.645,3.086v15.234Zm-14.645-15.484h4.606v-.129c.058-.614.086-1.051.086-1.305a4.738,4.738,0,0,0-.586-2.641,2.051,2.051,0,0,0-1.813-.855,1.98,1.98,0,0,0-1.793.836,5.215,5.215,0,0,0-.539,2.746c0,.348,0,.621.008.82S846.158,244.429,846.173,244.582Zm4.438,6.933h6.426v.61q0,4.276-2.246,6.437t-6.707,2.16a12.259,12.259,0,0,1-4.071-.633,6.779,6.779,0,0,1-2.847-1.75,7.639,7.639,0,0,1-1.637-3.414,33.818,33.818,0,0,1-.485-6.8,35.08,35.08,0,0,1,.5-7.207,7.505,7.505,0,0,1,1.711-3.368,7.165,7.165,0,0,1,2.954-1.878,12.414,12.414,0,0,1,4.171-.633,11.571,11.571,0,0,1,4.18.683,6.657,6.657,0,0,1,4.2,4.754,24.9,24.9,0,0,1,.4,5.4V248.8H846.005a1.324,1.324,0,0,0-.023.274c-.055,1.027-.086,1.738-.086,2.148a8.165,8.165,0,0,0,.551,3.571,1.981,1.981,0,0,0,1.89,1,2.09,2.09,0,0,0,1.762-.77,3.756,3.756,0,0,0,.594-2.324c0-.211-.024-.531-.059-.973A1.129,1.129,0,0,1,850.611,251.515Zm-27.875,8.551-7.3-32.453h8.086l2.824,17.047c.121.761.27,1.761.434,3.008s.32,2.589.48,4.035l.063-.4c.379-3.39.644-5.582.8-6.6l2.882-17.09h8.071l-7.434,32.453Z" fill="#fff" fill-rule="evenodd"/><path d="M767.419,237.757h13.79v-9.031H792.74v8.793c7.289-.039,9.906,5.031,9.984,9.512v9.984h-9.39v4.633H780.5Z" fill="#fff" fill-rule="evenodd"/><path d="M767.419,237.757h13.79v-9.031H792.74v8.793c7.289-.039,9.906,5.031,9.984,9.512v9.984h-9.39v4.633H780.5Z" fill="none" stroke="#fff" stroke-width="0.216"/><path d="M786.568,221.8A23.266,23.266,0,1,1,763.3,245.066,23.312,23.312,0,0,1,786.568,221.8Zm-19.149,15.957h13.79v-9.031H792.74v8.793c7.289-.039,9.906,5.031,9.984,9.512v9.984h-9.39v4.633H780.5Z" fill="#e30016" fill-rule="evenodd"/><path d="M790.408,231.484v9.2l.308-.105.469-.129.473-.094.469-.059.468-.027.465.008.461.031.453.063.445.09.438.117.426.14.418.164.406.184.391.2.379.227.363.242.347.262.329.277.312.293.3.3.273.32.25.332.231.344.2.355.18.367.152.375.125.383.09.391.062.394.024.4v8.617H793.9v-6.531l-.012-.192-.027-.156-.039-.137-.055-.125-.066-.117-.082-.1-.094-.1-.109-.094-.125-.082-.133-.074-.149-.066-.156-.055-.164-.043-.172-.031-.176-.02-.175-.008-.18.008-.172.02-.168.031-.164.043-.152.055-.141.062-.133.074-.113.082-.1.086-.089.1-.075.1-.058.113-.051.121-.035.137-.02.152,0,.207v10.75h-8.586l-10.164-18.809H779.1l4.9,8.665V231.484Z" fill="#00406a" fill-rule="evenodd"/><path d="M948.291,232.929a2.553,2.553,0,1,1-2.555,2.551A2.557,2.557,0,0,1,948.291,232.929Zm0-.461a3.012,3.012,0,1,1-3.012,3.012A3.018,3.018,0,0,1,948.291,232.468Z" fill="#fff" fill-rule="evenodd"/><path d="M947.669,235.316h.434a2.005,2.005,0,0,0,.524-.039.306.306,0,0,0,.16-.129.421.421,0,0,0,.062-.23.4.4,0,0,0-.078-.25.379.379,0,0,0-.223-.122c-.046,0-.187-.007-.421-.007h-.458Zm-.582,1.77v-3.067h1.227a1.99,1.99,0,0,1,.672.082.675.675,0,0,1,.336.293.964.964,0,0,1,.125.484.842.842,0,0,1-.192.571.893.893,0,0,1-.57.281,1.386,1.386,0,0,1,.313.258,3.683,3.683,0,0,1,.332.5l.351.6h-.7l-.422-.668a3.227,3.227,0,0,0-.309-.45.471.471,0,0,0-.171-.129.927.927,0,0,0-.3-.035h-.118v1.282Z" fill="#fff" fill-rule="evenodd"/></g></svg>