<svg xmlns="http://www.w3.org/2000/svg" width="40" height="40" viewBox="0 0 40 40"><g transform="translate(-899 -69)"><g transform="translate(13 105)"><g transform="translate(895 -26)"><g transform="translate(0 0)"><path d="M17.093,39.319a2.086,2.086,0,0,0-1.513-.694,2.157,2.157,0,0,0-1.531.689l-1.415,1.41c-.116-.063-.233-.121-.345-.179-.161-.081-.313-.157-.443-.237a15.376,15.376,0,0,1-3.685-3.358,9.071,9.071,0,0,1-1.209-1.907c.367-.336.707-.685,1.039-1.021.125-.125.251-.255.376-.381a2.054,2.054,0,0,0,0-3.1L7.145,29.322c-.139-.139-.282-.282-.416-.425-.269-.278-.551-.564-.842-.833a2.119,2.119,0,0,0-1.5-.658,2.193,2.193,0,0,0-1.522.658l-.009.009L1.334,29.609A3.275,3.275,0,0,0,.363,31.69a7.848,7.848,0,0,0,.573,3.322,19.276,19.276,0,0,0,3.425,5.713,21.068,21.068,0,0,0,7.015,5.493,10.93,10.93,0,0,0,3.94,1.164c.094,0,.193.009.282.009a3.373,3.373,0,0,0,2.583-1.11c0-.009.013-.013.018-.022a10.176,10.176,0,0,1,.783-.81c.193-.184.389-.376.582-.578a2.233,2.233,0,0,0,.676-1.549,2.152,2.152,0,0,0-.689-1.536Zm1.6,4.714s0,0,0,0c-.175.188-.354.358-.546.546a11.775,11.775,0,0,0-.864.9,2.158,2.158,0,0,1-1.683.712c-.067,0-.139,0-.206,0A9.71,9.71,0,0,1,11.9,45.135,19.887,19.887,0,0,1,5.3,39.959a18.175,18.175,0,0,1-3.223-5.368,6.392,6.392,0,0,1-.5-2.8,2.055,2.055,0,0,1,.618-1.33l1.527-1.527a1.018,1.018,0,0,1,.68-.318.958.958,0,0,1,.654.313l.013.013c.273.255.533.519.806.8.139.143.282.287.425.434L7.517,31.4a.854.854,0,0,1,0,1.388c-.13.13-.255.26-.385.385-.376.385-.734.743-1.124,1.092-.009.009-.018.013-.022.022A.913.913,0,0,0,5.753,35.3l.013.04A9.812,9.812,0,0,0,7.213,37.7l0,0a16.432,16.432,0,0,0,3.976,3.617,6.115,6.115,0,0,0,.551.3c.161.081.313.157.443.237.018.009.036.022.054.031a.971.971,0,0,0,.443.112.957.957,0,0,0,.68-.309L14.9,40.165a1.013,1.013,0,0,1,.676-.336.912.912,0,0,1,.645.327l.009.009,2.467,2.467A.885.885,0,0,1,18.7,44.033Z" transform="translate(-0.344 -26.179)" fill="#fff"/><path d="M245.441,87.124a5.762,5.762,0,0,1,4.692,4.692.6.6,0,0,0,.6.5.8.8,0,0,0,.1-.009.6.6,0,0,0,.5-.7,6.967,6.967,0,0,0-5.677-5.677.608.608,0,0,0-.7.492A.6.6,0,0,0,245.441,87.124Z" transform="translate(-233.993 -82.078)" fill="#fff"/><path d="M258.825,9.357A11.472,11.472,0,0,0,249.477.009a.6.6,0,1,0-.2,1.191,10.247,10.247,0,0,1,8.354,8.354.6.6,0,0,0,.6.5.8.8,0,0,0,.1-.009A.593.593,0,0,0,258.825,9.357Z" transform="translate(-237.653 0)" fill="#fff"/></g></g></g><g transform="translate(899 69)" fill="none" stroke="#fff" stroke-width="1"><circle cx="20" cy="20" r="20" stroke="none"/><circle cx="20" cy="20" r="19.5" fill="none"/></g></g></svg>