<svg xmlns="http://www.w3.org/2000/svg" width="114.541" height="28.35" viewBox="0 0 114.541 28.35"><g transform="translate(-763.302 -221.8)"><path d="M887.057,232.43h4.148v14.856h-4.148Zm0-5.072h4.148v3.593h-4.148Zm-8.932,19.927V232.43h3.838v2.082a5.611,5.611,0,0,1,1.5-1.7,3.85,3.85,0,0,1,1.854-.681v4.712c-.233-.052-.454-.088-.667-.114a4.686,4.686,0,0,0-.573-.038,1.477,1.477,0,0,0-1.4.7,6.49,6.49,0,0,0-.392,2.761v7.125Zm-2.485-14.856v14.856h-3.915v-1.761a4.721,4.721,0,0,1-1.566,1.562,4.059,4.059,0,0,1-2.042.495,2.9,2.9,0,0,1-2.547-1.156,6.4,6.4,0,0,1-.816-3.634V232.43h4.186v9.182a6.109,6.109,0,0,0,.236,2.213.863.863,0,0,0,.828.428,1.225,1.225,0,0,0,1.095-.666,3.721,3.721,0,0,0,.393-1.875V232.43Zm-12.492,14.808c-.507.093-.955.161-1.333.21a7.527,7.527,0,0,1-.966.071,5,5,0,0,1-2.114-.4,2.674,2.674,0,0,1-1.29-1.142,3.842,3.842,0,0,1-.378-1.29,17.929,17.929,0,0,1-.112-2.37V235.5h-1.613V232.43h1.613v-4.108h4.2v4.108h1.99V235.5h-1.99v6.062a5.845,5.845,0,0,0,.281,2.387,1.2,1.2,0,0,0,1.1.452,4.493,4.493,0,0,0,.469-.041,1.336,1.336,0,0,1,.141-.012Zm-20.065.048V232.43H847v1.761a4.641,4.641,0,0,1,1.566-1.557,4.086,4.086,0,0,1,2.056-.5,2.866,2.866,0,0,1,2.532,1.15,6.462,6.462,0,0,1,.8,3.641v10.36h-4.148v-9.179a6.135,6.135,0,0,0-.236-2.218.847.847,0,0,0-.828-.438,1.218,1.218,0,0,0-1.095.674,3.765,3.765,0,0,0-.393,1.88v9.281Zm-8.923-9.434h2.806v-.079c.035-.374.052-.64.052-.8a2.886,2.886,0,0,0-.357-1.609,1.25,1.25,0,0,0-1.1-.521,1.207,1.207,0,0,0-1.092.509,3.178,3.178,0,0,0-.328,1.673c0,.212,0,.378,0,.5S834.152,237.759,834.161,237.852Zm2.7,4.224h3.915v.372a5.191,5.191,0,0,1-1.368,3.922,5.69,5.69,0,0,1-4.086,1.316,7.468,7.468,0,0,1-2.48-.386,4.13,4.13,0,0,1-1.734-1.066,4.653,4.653,0,0,1-1-2.08,20.6,20.6,0,0,1-.3-4.145,21.374,21.374,0,0,1,.3-4.391,4.572,4.572,0,0,1,1.042-2.052,4.366,4.366,0,0,1,1.8-1.144,7.564,7.564,0,0,1,2.541-.386,7.051,7.051,0,0,1,2.547.416,4.056,4.056,0,0,1,2.561,2.9,15.165,15.165,0,0,1,.246,3.287v1.785h-6.8a.805.805,0,0,0-.014.167c-.033.626-.052,1.059-.052,1.309a4.976,4.976,0,0,0,.336,2.176,1.207,1.207,0,0,0,1.151.609,1.274,1.274,0,0,0,1.074-.469,2.289,2.289,0,0,0,.362-1.416c0-.129-.015-.324-.036-.593A.684.684,0,0,1,836.865,242.076Zm-16.983,5.21-4.451-19.772h4.926l1.721,10.386c.074.464.165,1.073.264,1.833s.195,1.577.292,2.458l.038-.246c.231-2.065.392-3.4.49-4.019l1.756-10.412h4.917l-4.529,19.772Z" transform="translate(-20.369 -2.172)" fill="#00406a" fill-rule="evenodd"/><path d="M767.419,234.228h8.4v-5.5h7.025v5.357c4.441-.024,6.035,3.065,6.083,5.8v6.083h-5.721v2.823h-7.82Z" transform="translate(-1.609 -2.706)" fill="#fff" fill-rule="evenodd"/><path d="M767.419,234.228h8.4v-5.5h7.025v5.357c4.441-.024,6.035,3.065,6.083,5.8v6.083h-5.721v2.823h-7.82Z" transform="translate(-1.609 -2.706)" fill="none" stroke="#fff" stroke-width="0.216"/><path d="M777.477,221.8A14.175,14.175,0,1,1,763.3,235.975,14.2,14.2,0,0,1,777.477,221.8Zm-11.667,9.722h8.4v-5.5h7.025v5.357c4.441-.024,6.035,3.065,6.083,5.8v6.083H781.6v2.823h-7.82Z" transform="translate(0 0)" fill="#e30016" fill-rule="evenodd"/><path d="M783.121,231.484v5.6l.188-.064.286-.079.288-.057.286-.036.285-.016.283,0,.281.019.276.038.271.055.267.071.26.085.255.1.247.112.238.124.231.138.221.147.211.16.2.169.19.179.181.186.166.195.152.2.141.21.124.216.11.224.093.228.076.233.055.238.038.24.015.241v5.25h-3.787v-3.979l-.007-.117-.016-.1-.024-.083-.034-.076-.04-.071-.05-.064-.057-.06-.066-.057-.076-.05-.081-.045-.091-.04-.095-.034-.1-.026-.1-.019-.107-.012-.107,0-.11,0-.1.012-.1.019-.1.026-.093.034-.086.038-.081.045-.069.05-.062.052-.054.06-.046.062-.035.069-.031.074-.021.083-.012.093,0,.126v6.55h-5.231l-6.193-11.46h4.474l2.987,5.279v-10.8Z" transform="translate(-3.305 -3.784)" fill="#00406a" fill-rule="evenodd"/><path d="M947.114,232.749a1.555,1.555,0,1,1-1.557,1.554A1.558,1.558,0,0,1,947.114,232.749Zm0-.281a1.835,1.835,0,1,1-1.835,1.835A1.839,1.839,0,0,1,947.114,232.468Z" transform="translate(-71.106 -4.168)" fill="#00406a" fill-rule="evenodd"/><path d="M947.442,234.809h.264a1.221,1.221,0,0,0,.319-.024.187.187,0,0,0,.1-.079.256.256,0,0,0,.038-.14.241.241,0,0,0-.047-.152.231.231,0,0,0-.136-.074c-.028,0-.114,0-.256,0h-.279Zm-.355,1.078v-1.869h.748a1.212,1.212,0,0,1,.409.05.411.411,0,0,1,.2.179.588.588,0,0,1,.076.295.513.513,0,0,1-.117.348.544.544,0,0,1-.347.171.846.846,0,0,1,.191.157,2.248,2.248,0,0,1,.2.3l.214.367h-.423l-.257-.407a1.97,1.97,0,0,0-.188-.274.287.287,0,0,0-.1-.079.565.565,0,0,0-.181-.021h-.072v.781Z" transform="translate(-71.812 -4.774)" fill="#00406a" fill-rule="evenodd"/></g></svg>