<svg xmlns="http://www.w3.org/2000/svg" width="50.455" height="50.572" viewBox="0 0 50.455 50.572"><g transform="translate(-0.572)"><g transform="translate(0.573 8.157)"><path d="M41.562,115.89l-1.888-5.666a5.71,5.71,0,0,0-4.4-3.812l-5.451-.992V105a8.209,8.209,0,0,0,2.432-2.159h1.647a2.45,2.45,0,0,0,2.447-2.447V90.6a10.6,10.6,0,1,0-21.208,0v5.71a3.268,3.268,0,0,0,2.6,3.2A8.172,8.172,0,0,0,21.67,105v.423l-5.452.992a5.709,5.709,0,0,0-4.395,3.812l-.326.98-2.778-2.778a.817.817,0,0,1,0-1.154l3.222-3.221L5.893,98l-3.641,3.641a5.71,5.71,0,0,0,0,8.074l11.024,11.024a5.707,5.707,0,0,0,8.049.024l3.973-3.64-1.239-1.237Zm-6.841-15.5a.817.817,0,0,1-.816.816h-.686a8.1,8.1,0,0,0,.532-1.7,3.231,3.231,0,0,0,.97-.386Zm-.816-2.674V94.909a1.617,1.617,0,0,1,0,2.809Zm-16.314,0a1.617,1.617,0,0,1,0-2.809Zm0-5.483v.932a3.235,3.235,0,0,0-.816.338V90.6a8.972,8.972,0,0,1,17.945,0v2.9a3.206,3.206,0,0,0-.816-.338v-.932H33.09A8.974,8.974,0,0,1,26.7,89.59l-.955-.955-.955.955a8.974,8.974,0,0,1-6.386,2.645Zm1.631,5.71V93.836a10.575,10.575,0,0,0,6.525-2.9,10.571,10.571,0,0,0,6.525,2.9v4.109a6.476,6.476,0,0,1-.883,3.263H25.748v1.631h4.3a6.515,6.515,0,0,1-10.827-4.894Zm8.972,7.781v.038l-2.447,2.447L23.3,105.764v-.038a8.15,8.15,0,0,0,4.894,0ZM13.37,110.74a4.08,4.08,0,0,1,3.14-2.724l5.7-1.036,3.538,3.538,3.537-3.537,5.7,1.036a4.078,4.078,0,0,1,3.14,2.724l1.174,3.518H22.428l-3.177-3.177-3.53,3.193a.833.833,0,0,1-1.153,0l-1.781-1.781ZM5.892,100.31l3.741,3.741-.886.886L5.007,101.2ZM20.2,119.59a4.079,4.079,0,0,1-5.768,0L3.4,108.566a4.079,4.079,0,0,1,0-5.768l.449-.449,3.741,3.741-.029.029a2.451,2.451,0,0,0,0,3.461l5.849,5.849a2.434,2.434,0,0,0,1.731.717,2.4,2.4,0,0,0,1.7-.688l.061-.055,3.758,3.758Zm1.672-1.533-3.75-3.75,1.078-.974,3.743,3.743Z" transform="translate(-0.58 -80)" fill="#fff"/></g><g transform="translate(34.714)"><path d="M349.294,0H337.875a2.45,2.45,0,0,0-2.447,2.447V8.972a2.45,2.45,0,0,0,2.447,2.447h2.179l-.843,4.919,7.871-4.919h2.213a2.45,2.45,0,0,0,2.447-2.447V2.447A2.45,2.45,0,0,0,349.294,0Zm.816,8.972a.817.817,0,0,1-.816.816h-2.681l-5.18,3.237.555-3.237h-4.113a.817.817,0,0,1-.816-.816V2.447a.817.817,0,0,1,.816-.816h11.419a.817.817,0,0,1,.816.816Z" transform="translate(-335.428)" fill="#fff"/></g><g transform="translate(37.976 3.263)"><rect width="9.788" height="1.631" fill="#fff"/></g><g transform="translate(37.976 6.525)"><rect width="6.525" height="1.631" fill="#fff"/></g><g transform="translate(46.133 6.525)"><rect width="1.631" height="1.631" fill="#fff"/></g><g transform="translate(0.572 2.447)"><g transform="translate(0)"><path d="M25.741,24A22.824,22.824,0,0,0,3.517,41.655L1.971,39.079l-1.4.839L3.439,44.7l4.777-2.867-.839-1.4-2.21,1.326A21.213,21.213,0,0,1,32.025,26.578l.483-1.558A22.824,22.824,0,0,0,25.741,24Z" transform="translate(-0.572 -24)" fill="#fff"/></g></g><g transform="translate(42.219 15.194)"><path d="M417.448,151.883l-4.777-2.867-2.866,4.778,1.4.839,1.427-2.379a21.226,21.226,0,0,1-3.595,20.207l1.267,1.028a22.842,22.842,0,0,0,3.909-21.645l2.4,1.438Z" transform="translate(-409.036 -149.016)" fill="#fff"/></g></g></svg>