<svg xmlns="http://www.w3.org/2000/svg" width="39" height="39" viewBox="0 0 39 39"><g transform="translate(0 0.001)"><g transform="translate(0 -0.001)"><path d="M38.224,6.93a1.152,1.152,0,0,0-1.885-.39L30.4,12.481,27.2,11.795,26.518,8.6,32.459,2.66a1.152,1.152,0,0,0-.39-1.885A10.986,10.986,0,0,0,17.434,13.939L1.579,29.794A5.392,5.392,0,0,0,9.205,37.42L25.06,21.565A10.987,10.987,0,0,0,38.224,6.93ZM34.152,17.122a8.73,8.73,0,0,1-9.03,2.048,1.152,1.152,0,0,0-1.2.272L7.576,35.791a3.089,3.089,0,1,1-4.368-4.368L19.557,15.074a1.152,1.152,0,0,0,.272-1.2A8.682,8.682,0,0,1,29.44,2.421L24.445,7.415a1.152,1.152,0,0,0-.312,1.057l.975,4.535a1.152,1.152,0,0,0,.884.884l4.535.975a1.152,1.152,0,0,0,1.057-.312l4.995-4.995A8.678,8.678,0,0,1,34.152,17.122Z" transform="translate(0 0.001)" fill="#fff"/></g></g></svg>