<svg xmlns="http://www.w3.org/2000/svg" width="93" height="93" viewBox="0 0 93 93"><g transform="translate(-637 -1674)"><circle cx="46.5" cy="46.5" r="46.5" transform="translate(637 1674)" fill="#fff"/><g transform="translate(659 1697)"><path d="M83.18,20.9l2.011.393a14.261,14.261,0,0,0,.658,1.6l-1.145,1.7a1.436,1.436,0,0,0,.175,1.819l4.039,4.039a1.436,1.436,0,0,0,1.818.175l1.7-1.146A14.233,14.233,0,0,0,94,30.122l.389,2.013A1.436,1.436,0,0,0,95.8,33.3l5.712.006h0a1.436,1.436,0,0,0,1.409-1.16l.393-2.012a14.19,14.19,0,0,0,1.6-.658l1.7,1.146a1.435,1.435,0,0,0,1.818-.175l4.039-4.039a1.435,1.435,0,0,0,.175-1.818l-1.146-1.7a14.192,14.192,0,0,0,.649-1.568l2.013-.389a1.436,1.436,0,0,0,1.163-1.408l.006-5.712a1.436,1.436,0,0,0-1.161-1.411l-2.011-.393a14.189,14.189,0,0,0-.658-1.6l1.146-1.7a1.436,1.436,0,0,0-.175-1.818L108.425,2.86a1.435,1.435,0,0,0-1.818-.175l-1.7,1.146a14.166,14.166,0,0,0-1.568-.649l-.388-2.013A1.436,1.436,0,0,0,101.544.006L95.833,0h0a1.436,1.436,0,0,0-1.409,1.16l-.393,2.012a14.26,14.26,0,0,0-1.6.658l-1.7-1.145a1.436,1.436,0,0,0-1.819.175L84.88,6.9A1.435,1.435,0,0,0,84.7,8.717l1.146,1.7a14.162,14.162,0,0,0-.649,1.568l-2.013.389a1.436,1.436,0,0,0-1.163,1.408l-.006,5.712A1.436,1.436,0,0,0,83.18,20.9ZM84.9,14.966l1.694-.327A1.436,1.436,0,0,0,87.7,13.61a11.334,11.334,0,0,1,1.067-2.58,1.435,1.435,0,0,0-.058-1.511l-.963-1.427,2.365-2.364,1.427.963a1.436,1.436,0,0,0,1.512.059,11.316,11.316,0,0,1,2.6-1.073,1.435,1.435,0,0,0,1.031-1.11l.33-1.693,3.344,0,.327,1.694a1.435,1.435,0,0,0,1.029,1.112,11.345,11.345,0,0,1,2.58,1.067A1.436,1.436,0,0,0,105.8,6.69l1.427-.963L109.6,8.092l-.963,1.427a1.437,1.437,0,0,0-.059,1.512,11.334,11.334,0,0,1,1.073,2.6,1.435,1.435,0,0,0,1.11,1.031l1.693.331,0,3.344-1.694.327a1.436,1.436,0,0,0-1.112,1.029,11.308,11.308,0,0,1-1.067,2.58,1.436,1.436,0,0,0,.059,1.511l.963,1.427-2.365,2.365-1.427-.963a1.436,1.436,0,0,0-1.512-.059,11.3,11.3,0,0,1-2.6,1.073,1.436,1.436,0,0,0-1.031,1.11l-.33,1.693-3.344,0-.327-1.694a1.436,1.436,0,0,0-1.029-1.112,11.308,11.308,0,0,1-2.58-1.067,1.436,1.436,0,0,0-1.512.059l-1.427.963-2.365-2.365.963-1.427a1.436,1.436,0,0,0,.059-1.511,11.337,11.337,0,0,1-1.073-2.6,1.436,1.436,0,0,0-1.11-1.031l-1.693-.331Zm0,0" transform="translate(-74.169 0)" fill="#00325d"/><path d="M1.436,361.566a5.673,5.673,0,0,1,3.167.859,8.426,8.426,0,0,0,4.522,1.2,8.426,8.426,0,0,0,4.522-1.2,5.673,5.673,0,0,1,3.167-.859,5.673,5.673,0,0,1,3.167.859,8.426,8.426,0,0,0,4.522,1.2,8.426,8.426,0,0,0,4.522-1.2,5.675,5.675,0,0,1,3.167-.859,5.674,5.674,0,0,1,3.167.859,9.132,9.132,0,0,0,9.044,0,5.674,5.674,0,0,1,3.167-.859,1.436,1.436,0,0,0,0-2.871,8.423,8.423,0,0,0-4.522,1.2,6.27,6.27,0,0,1-6.334,0,8.423,8.423,0,0,0-4.522-1.2,8.424,8.424,0,0,0-4.522,1.2,5.674,5.674,0,0,1-3.167.859,5.673,5.673,0,0,1-3.167-.859,8.423,8.423,0,0,0-4.522-1.2,8.426,8.426,0,0,0-4.522,1.2,5.673,5.673,0,0,1-3.167.859,5.673,5.673,0,0,1-3.167-.859,8.425,8.425,0,0,0-4.522-1.2,1.436,1.436,0,0,0,0,2.871Zm0,0" transform="translate(0 -324.364)" fill="#00325d"/><path d="M47.568,444.777a8.426,8.426,0,0,0-4.522,1.2,6.268,6.268,0,0,1-6.334,0,8.426,8.426,0,0,0-4.522-1.2,8.424,8.424,0,0,0-4.522,1.2,5.677,5.677,0,0,1-3.167.859,5.676,5.676,0,0,1-3.167-.859,8.423,8.423,0,0,0-4.522-1.2,8.423,8.423,0,0,0-4.522,1.2,5.676,5.676,0,0,1-3.167.859,5.676,5.676,0,0,1-3.167-.859,8.422,8.422,0,0,0-4.522-1.2,1.436,1.436,0,0,0,0,2.871,5.673,5.673,0,0,1,3.167.859,8.423,8.423,0,0,0,4.522,1.2,8.426,8.426,0,0,0,4.522-1.2,5.673,5.673,0,0,1,3.167-.859,5.673,5.673,0,0,1,3.167.859,8.423,8.423,0,0,0,4.522,1.2,8.423,8.423,0,0,0,4.522-1.2,5.674,5.674,0,0,1,3.167-.859,5.673,5.673,0,0,1,3.167.859,9.13,9.13,0,0,0,9.044,0,5.673,5.673,0,0,1,3.167-.859,1.436,1.436,0,0,0,0-2.871Zm0,0" transform="translate(0 -402.207)" fill="#00325d"/><path d="M184.84,110.352a7.531,7.531,0,1,0-7.532-7.531A7.54,7.54,0,0,0,184.84,110.352Zm0-12.192a4.66,4.66,0,1,1-4.66,4.66A4.665,4.665,0,0,1,184.84,98.16Zm0,0" transform="translate(-160.338 -86.169)" fill="#00325d"/></g></g></svg>