<svg xmlns="http://www.w3.org/2000/svg" width="57.333" height="42.793" viewBox="0 0 57.333 42.793"><g transform="translate(-147 -2145.198)"><g transform="translate(147 2077.5)"><rect width="1.736" height="1.68" transform="translate(0 75.2)" fill="#fff"/><rect width="1.736" height="1.68" transform="translate(0 81.937)" fill="#fff"/><path d="M79.21,162.093V146.976h-1.68v15.117H71.652V137.738h-1.68v24.355H64.093V146.976h-1.68v15.117H56.535v-4.2h-1.68v4.2H48.976v-8.4H47.3v8.4H41.418v-1.68h-1.68v1.68H33.02V128.5H30.5v1.68h.84v5.039H30.5v1.68h.84v5.039H30.5v1.68h.84v5.039H30.5v1.68h.84v5.039H30.5v1.68h.84v5.039H30.5v1.68H84.417v-1.68Z" transform="translate(-27.085 -53.281)" fill="#fff"/><rect width="1.736" height="1.68" transform="translate(0 88.656)" fill="#fff"/><rect width="1.736" height="1.68" transform="translate(0 95.375)" fill="#fff"/><rect width="1.736" height="1.68" transform="translate(0 102.093)" fill="#fff"/><rect width="1.736" height="1.68" transform="translate(0 108.812)" fill="#fff"/><path d="M100.52,358.539A2.52,2.52,0,1,0,98,356.02,2.522,2.522,0,0,0,100.52,358.539Zm0-3.359a.84.84,0,1,1-.84.84A.841.841,0,0,1,100.52,355.18Z" transform="translate(-87.026 -253.086)" fill="#fff"/><path d="M168.02,298.539a2.52,2.52,0,1,0-2.52-2.52A2.522,2.522,0,0,0,168.02,298.539Zm0-3.359a.84.84,0,1,1-.84.84A.841.841,0,0,1,168.02,295.18Z" transform="translate(-146.968 -199.805)" fill="#fff"/><path d="M235.52,336.039a2.52,2.52,0,1,0-2.52-2.52A2.522,2.522,0,0,0,235.52,336.039Zm0-3.359a.84.84,0,1,1-.84.84A.841.841,0,0,1,235.52,332.68Z" transform="translate(-206.909 -233.106)" fill="#fff"/><path d="M304.895,238.539a2.52,2.52,0,1,0-2.52-2.52A2.522,2.522,0,0,0,304.895,238.539Zm0-3.359a.84.84,0,1,1-.84.84A.841.841,0,0,1,304.895,235.18Z" transform="translate(-268.516 -146.524)" fill="#fff"/><path d="M436.145,233.5a2.52,2.52,0,1,0,2.52,2.52A2.522,2.522,0,0,0,436.145,233.5Zm0,3.359a.84.84,0,1,1,.84-.84A.841.841,0,0,1,436.145,236.859Z" transform="translate(-385.069 -146.524)" fill="#fff"/><path d="M370.52,156.039a2.52,2.52,0,1,0-2.52-2.52A2.522,2.522,0,0,0,370.52,156.039Zm0-3.359a.84.84,0,1,1-.84.84A.841.841,0,0,1,370.52,152.68Z" transform="translate(-326.792 -73.262)" fill="#fff"/><rect width="2" height="1" transform="translate(46 75.5)" fill="#fff"/><rect width="4.199" height="1.68" transform="translate(46.247 71.859)" fill="#fff"/><rect width="7" height="2" transform="translate(46 68.5)" fill="#fff"/></g><g transform="translate(2 2048.797)"><g transform="translate(176.734 96.401)"><path d="M181.036,102.926h-1.45a1.5,1.5,0,1,1,0-3h2.9a.677.677,0,1,0,0-1.354h-1.5v-1.5a.677.677,0,0,0-1.354,0v1.5h-.048a2.852,2.852,0,1,0,0,5.7h1.45a1.5,1.5,0,0,1,0,3h-2.9a.677.677,0,0,0,0,1.354h1.5v1.5a.677.677,0,0,0,1.354,0v-1.5h.048a2.852,2.852,0,0,0,0-5.7Z" transform="translate(-176.734 -96.401)" fill="#fff"/></g></g></g></svg>