<svg xmlns="http://www.w3.org/2000/svg" width="63" height="63" viewBox="0 0 63 63"><g transform="translate(-987 -1314)"><g transform="translate(1005 1327)"><g transform="translate(0)"><path d="M89.307,0a13.309,13.309,0,0,0-11.32,20.3L88.549,37.326a1.109,1.109,0,0,0,.942.524H89.5a1.109,1.109,0,0,0,.943-.539l10.294-17.187A13.31,13.31,0,0,0,89.307,0Zm9.527,18.986L89.475,34.611l-9.6-15.476a11.1,11.1,0,1,1,18.962-.15Z" transform="translate(-76 0)" fill="#fff"/><g transform="translate(6.653 6.653)"><path d="M172.653,90a6.653,6.653,0,1,0,6.653,6.653A6.661,6.661,0,0,0,172.653,90Zm0,11.1a4.45,4.45,0,1,1,4.443-4.45A4.454,4.454,0,0,1,172.653,101.1Z" transform="translate(-166 -90)" fill="#fff"/></g></g></g><g transform="translate(987 1314)" fill="none" stroke="#fff" stroke-width="2"><circle cx="31.5" cy="31.5" r="31.5" stroke="none"/><circle cx="31.5" cy="31.5" r="30.5" fill="none"/></g></g></svg>