<svg xmlns="http://www.w3.org/2000/svg" width="63" height="62" viewBox="0 0 63 62"><g transform="translate(0.276 -0.33)"><g transform="translate(13.829 13.824)"><g transform="translate(0 0)"><g transform="translate(0 0)"><path d="M26.616,46.092A3.272,3.272,0,0,0,24.242,45a3.384,3.384,0,0,0-2.4,1.081L19.621,48.3c-.183-.1-.365-.19-.541-.281-.253-.126-.492-.246-.7-.372a24.118,24.118,0,0,1-5.779-5.267,14.228,14.228,0,0,1-1.9-2.991c.576-.527,1.11-1.074,1.629-1.6.2-.2.393-.4.59-.6a3.222,3.222,0,0,0,0-4.859l-1.917-1.917c-.218-.218-.442-.442-.653-.667-.421-.435-.864-.885-1.32-1.306a3.324,3.324,0,0,0-2.352-1.032A3.44,3.44,0,0,0,4.3,28.438l-.014.014L1.9,30.861A5.138,5.138,0,0,0,.373,34.126a12.31,12.31,0,0,0,.9,5.211A30.236,30.236,0,0,0,6.644,48.3a33.046,33.046,0,0,0,11,8.616,17.145,17.145,0,0,0,6.18,1.826c.147.007.3.014.442.014a5.291,5.291,0,0,0,4.052-1.742c.007-.014.021-.021.028-.035a15.96,15.96,0,0,1,1.229-1.271c.3-.288.611-.59.913-.906a3.5,3.5,0,0,0,1.06-2.43,3.375,3.375,0,0,0-1.081-2.409Zm2.514,7.394c-.007,0-.007.007,0,0-.274.295-.555.562-.857.857a18.469,18.469,0,0,0-1.355,1.4,3.385,3.385,0,0,1-2.64,1.117c-.105,0-.218,0-.323-.007a15.231,15.231,0,0,1-5.477-1.643A31.193,31.193,0,0,1,8.112,47.1a28.509,28.509,0,0,1-5.056-8.42,10.027,10.027,0,0,1-.786-4.4A3.224,3.224,0,0,1,3.238,32.2L5.633,29.8A1.6,1.6,0,0,1,6.7,29.3a1.5,1.5,0,0,1,1.025.492l.021.021c.428.4.836.815,1.264,1.257.218.225.442.449.667.681l1.917,1.917a1.34,1.34,0,0,1,0,2.177c-.2.2-.4.407-.6.6-.59.6-1.152,1.166-1.763,1.713-.014.014-.028.021-.035.035a1.432,1.432,0,0,0-.365,1.594l.021.063a15.391,15.391,0,0,0,2.268,3.7l.007.007a25.774,25.774,0,0,0,6.236,5.674,9.592,9.592,0,0,0,.864.47c.253.126.492.246.7.372.028.014.056.035.084.049a1.522,1.522,0,0,0,.7.176,1.5,1.5,0,0,0,1.067-.485l2.4-2.4a1.589,1.589,0,0,1,1.06-.527,1.43,1.43,0,0,1,1.011.513l.014.014,3.869,3.869A1.388,1.388,0,0,1,29.13,53.487Z" transform="translate(-0.344 -25.482)" fill="#fff"/><path d="M245.724,87.806a9.038,9.038,0,0,1,7.359,7.359.942.942,0,0,0,.934.787,1.258,1.258,0,0,0,.161-.014.949.949,0,0,0,.779-1.1,10.928,10.928,0,0,0-8.9-8.9.953.953,0,0,0-1.1.772A.938.938,0,0,0,245.724,87.806Z" transform="translate(-227.767 -79.891)" fill="#fff"/><path d="M264.539,14.677A17.994,17.994,0,0,0,249.876.015a.947.947,0,1,0-.309,1.868,16.072,16.072,0,0,1,13.1,13.1.942.942,0,0,0,.934.786,1.256,1.256,0,0,0,.162-.014A.93.93,0,0,0,264.539,14.677Z" transform="translate(-231.33 0)" fill="#fff"/></g></g></g><g transform="translate(-0.276 0.33)" fill="none" stroke="#fff" stroke-width="2"><ellipse cx="31.5" cy="31" rx="31.5" ry="31" stroke="none"/><ellipse cx="31.5" cy="31" rx="30.5" ry="30" fill="none"/></g></g></svg>