<svg xmlns="http://www.w3.org/2000/svg" width="17.461" height="16.594" viewBox="0 0 17.461 16.594"><g transform="translate(3.214 1.381)"><g transform="translate(-3.214 -1.381)"><path d="M14.069,36.639a1.754,1.754,0,0,0-1.24-.538,1.815,1.815,0,0,0-1.255.534l-1.159,1.093c-.1-.049-.191-.094-.282-.139-.132-.062-.257-.121-.363-.184A12.38,12.38,0,0,1,6.75,34.8a6.987,6.987,0,0,1-.99-1.478c.3-.26.58-.531.851-.791.1-.1.205-.2.308-.295a1.536,1.536,0,0,0,0-2.4l-1-.947c-.114-.108-.231-.219-.341-.33-.22-.215-.451-.437-.69-.645a1.785,1.785,0,0,0-1.229-.51,1.848,1.848,0,0,0-1.247.51l-.007.007-1.247,1.19a2.483,2.483,0,0,0-.8,1.613A5.792,5.792,0,0,0,.829,33.3a14.794,14.794,0,0,0,2.806,4.427,17.161,17.161,0,0,0,5.749,4.257,9.339,9.339,0,0,0,3.228.9c.077,0,.158.007.231.007a2.841,2.841,0,0,0,2.117-.86c0-.007.011-.01.015-.017a8.106,8.106,0,0,1,.642-.628c.158-.142.319-.291.477-.448a1.687,1.687,0,0,0,.554-1.2,1.628,1.628,0,0,0-.565-1.19Zm1.313,3.654s0,0,0,0c-.143.146-.29.278-.448.423a9.375,9.375,0,0,0-.708.694,1.818,1.818,0,0,1-1.379.552c-.055,0-.114,0-.169,0a8.294,8.294,0,0,1-2.861-.812A16.2,16.2,0,0,1,4.4,37.135a13.95,13.95,0,0,1-2.641-4.16A4.716,4.716,0,0,1,1.35,30.8a1.558,1.558,0,0,1,.506-1.03l1.251-1.183a.856.856,0,0,1,.558-.246.8.8,0,0,1,.536.243l.011.01c.224.2.437.4.66.621.114.111.231.222.349.337l1,.947a.642.642,0,0,1,0,1.076c-.106.1-.209.2-.315.3-.308.3-.6.576-.921.847-.007.007-.015.01-.018.017a.68.68,0,0,0-.191.788l.011.031a7.54,7.54,0,0,0,1.185,1.829l0,0a13.231,13.231,0,0,0,3.258,2.8c.15.09.3.163.451.232s.257.121.363.184c.015.007.029.017.044.024a.832.832,0,0,0,.363.087.8.8,0,0,0,.558-.239l1.255-1.187a.847.847,0,0,1,.554-.26.762.762,0,0,1,.528.253l.007.007,2.021,1.912A.664.664,0,0,1,15.382,40.292Z" transform="translate(-0.344 -26.301)" fill="#fff"/><path d="M245.392,87.005a5.189,5.189,0,0,1,4.226,4.226.541.541,0,0,0,.536.452.72.72,0,0,0,.093-.008.545.545,0,0,0,.448-.629,6.275,6.275,0,0,0-5.113-5.113.547.547,0,0,0-.629.444A.538.538,0,0,0,245.392,87.005Z" transform="translate(-236.278 -83.112)" fill="#fff"/><path d="M257.827,8.428A10.332,10.332,0,0,0,249.408.008a.544.544,0,1,0-.177,1.073,9.229,9.229,0,0,1,7.524,7.524.541.541,0,0,0,.536.452.72.72,0,0,0,.093-.008A.534.534,0,0,0,257.827,8.428Z" transform="translate(-240.375 0)" fill="#fff"/></g></g></svg>