<svg xmlns="http://www.w3.org/2000/svg" width="11.953" height="17" viewBox="0 0 11.953 17"><g transform="translate(-76)"><g transform="translate(76)"><path d="M81.977,0a5.978,5.978,0,0,0-5.084,9.119l4.744,7.645A.5.5,0,0,0,82.06,17h0a.5.5,0,0,0,.423-.242L87.11,9.039A5.978,5.978,0,0,0,81.977,0Zm4.279,8.527-4.2,7.018L77.739,8.594a4.984,4.984,0,1,1,8.517-.067Z" transform="translate(-76)" fill="#fff"/></g><g transform="translate(78.988 2.988)"><path d="M168.988,90a2.988,2.988,0,1,0,2.988,2.988A2.992,2.992,0,0,0,168.988,90Zm0,4.987a2,2,0,1,1,2-2A2,2,0,0,1,168.988,94.987Z" transform="translate(-166 -90)" fill="#fff"/></g></g></svg>